<?xml version="1.0" encoding="UTF-8" standalone="no"?>
<svg
   xmlns:dc="http://purl.org/dc/elements/1.1/"
   xmlns:cc="http://creativecommons.org/ns#"
   xmlns:rdf="http://www.w3.org/1999/02/22-rdf-syntax-ns#"
   xmlns:svg="http://www.w3.org/2000/svg"
   xmlns="http://www.w3.org/2000/svg"
   viewBox="0 0 286.60001 27.612499"
   height="27.612499"
   width="286.60001"
   xml:space="preserve"
   version="1.1"
   id="svg3425"><metadata
     id="metadata3431"><rdf:RDF><cc:Work
         rdf:about=""><dc:format>image/svg+xml</dc:format><dc:type
           rdf:resource="http://purl.org/dc/dcmitype/StillImage" /><dc:title></dc:title></cc:Work></rdf:RDF></metadata><defs
     id="defs3429" /><g
     transform="matrix(1.25,0,0,-1.25,0,27.6125)"
     id="g3433"><g
       transform="scale(0.1,0.1)"
       id="g3435"><path
         id="path3437"
         style="fill:#ffffff;fill-opacity:1;fill-rule:nonzero;stroke:none"
         d="m 1100.48,166.551 c 0.18,1.601 0.42,3.047 0.57,4.406 0.2,1.387 0.32,2.859 0.32,4.422 0,2.148 -0.4,5.312 -1.16,9.543 -0.81,4.18 -3.17,8.543 -7.06,13.074 -3.17,3.508 -6.83,6.067 -11.05,7.629 -4.17,1.563 -8.75,2.352 -13.63,2.352 -7.86,0 -14.69,-1.778 -20.58,-5.301 -5.66,-3.926 -9.93,-9.375 -12.76,-16.231 -2.84,-6.875 -4.29,-13.605 -4.29,-20.05 0.2,-6.329 1.07,-11.348 2.66,-15.059 1.57,-3.719 3.91,-8.086 7.05,-12.996 4.31,0.594 7.92,1.023 10.87,1.316 2.95,0.313 5.57,0.528 7.95,0.625 2.31,0.059 4.53,0.176 6.6,0.266 2.03,0.105 4.24,0.144 6.6,0.144 1.58,0 3.04,-0.039 4.39,-0.144 1.38,-0.09 2.85,-0.129 4.42,-0.129 0.78,-0.215 1.56,-0.449 2.36,-0.762 0.76,-0.273 1.15,-0.906 1.15,-1.883 0,-1.906 -0.71,-3.789 -2.19,-5.617 -1.47,-1.863 -2.69,-3.426 -3.67,-4.765 -0.98,-1.172 -2.15,-2.567 -3.52,-4.239 -1.36,-1.601 -3.06,-2.429 -4.99,-2.429 -0.79,0 -1.59,0.047 -2.36,0.164 -0.78,0.078 -1.66,0.215 -2.64,0.422 -5.09,0.574 -9.2,1.472 -12.34,2.625 -3.15,1.191 -5.78,2.277 -7.92,3.242 -2.18,-0.41 -4.42,-0.684 -6.75,-0.86 -2.37,-0.214 -4.63,-0.507 -6.77,-0.886 -1.17,-0.196 -3.01,-0.715 -5.46,-1.496 -2.45,-0.782 -5.31,-1.758 -8.57,-2.911 -3.25,-1.171 -6.73,-2.664 -10.46,-4.414 -3.73,-1.757 -7.289,-3.828 -10.629,-6.148 -3.738,-2.356 -7.297,-5.246 -10.644,-8.547 -3.348,-3.3202 -6.297,-6.9335 -8.829,-10.8593 -2.57,-3.9258 -4.57,-8.0938 -6.074,-12.4805 -1.465,-4.4414 -2.195,-8.9765 -2.195,-13.6836 0,-5.6718 0.926,-10.75 2.781,-15.2617 1.895,-4.5 4.68,-8.8203 8.399,-12.9101 1.992,-2.3438 4.511,-4.7383 7.546,-7.0625 3.032,-2.3516 6.692,-4.5 10.911,-6.4649 4.224,-1.9609 9.144,-3.543 14.744,-4.707 5.6,-1.1602 12.03,-1.7852 19.33,-1.7852 0.97,0 3.17,0.0586 6.61,0.1953 3.44,0.0703 6.95,0.6172 10.45,1.5899 1.96,0.6094 4.79,1.5039 8.52,2.8047 3.73,1.2695 7.75,3.2304 12.04,5.8906 4.29,2.6055 8.62,5.9141 12.91,9.8398 4.34,3.9102 8.16,8.7891 11.49,14.6602 2.14,4.3281 3.72,8.2109 4.7,11.7266 0.96,3.5742 1.86,7.5781 2.63,12.0703 l -24.66,0.8789 c -3.72,0 -7.49,0 -11.16,0 -3.75,0 -7.57,0.0976 -11.49,0.3164 -5.46,0 -9.77,0.0273 -12.92,0.1328 -3.13,0.1211 -5.81,0 -7.95,-0.293 -2.16,-0.3008 -4.28,-0.789 -6.33,-1.4453 -2.07,-0.7109 -4.68,-1.7461 -7.82,-3.1016 0.2,-0.9804 0.44,-1.9765 0.74,-2.9335 0.27,-1.004 0.64,-1.8633 1.03,-2.6446 0.99,-1.5625 2.74,-3.0976 5.28,-4.5429 2.57,-1.4922 5.93,-2.254 10.03,-2.254 1.96,0 3.37,0.2813 4.15,0.7618 0.79,0.4765 1.28,1.6992 1.45,3.6797 l 4.73,-0.2813 c 0,-0.6055 0.15,-1.9062 0.43,-3.9531 0.29,-2.1133 0.16,-4.1914 -0.43,-6.3281 -0.59,-2.3672 -2.3,-5.0508 -5.14,-8.1172 -2.84,-3.0078 -7.33,-4.543 -13.36,-4.543 -3.94,0 -7.18,0.7031 -9.71,2.0625 -2.55,1.375 -4.55,2.9375 -6.03,4.6953 -1.46,1.7774 -2.48,3.6524 -3.07,5.7539 -0.61,2.0313 -0.88,3.8594 -0.88,5.418 0,3.9258 0.88,7.4805 2.63,10.5859 1.76,3.0977 3.73,6.1524 5.87,9.0821 2.92,3.5195 6.04,6.6601 9.27,9.3984 3.21,2.7891 6.9,5.1055 11,7.0859 3.55,1.7422 7.26,3.0313 11.19,3.8282 3.91,0.7617 8.25,1.2695 13.05,1.5862 4.8,0.308 10.18,0.34 16.18,0.144 5.97,-0.187 12.86,-0.398 20.68,-0.6052 l 9.11,-0.2852 c 8.23,-0.5664 16.64,-0.8398 25.3,-0.8398 l 11.73,0 c 0.98,0 2.14,0.0585 3.52,0.2734 1.37,0.207 2.56,0.4883 3.51,0.8516 1.37,0.6052 2.42,1.9802 3.11,4.1012 0.69,2.141 1.02,3.684 1.02,4.668 0,1.961 -0.49,4.168 -1.46,6.707 -1.18,2.735 -2.54,4.942 -4.13,6.555 -1.55,1.688 -3.25,2.996 -4.98,3.965 -1.78,0.926 -3.5,1.621 -5.15,2 -1.66,0.43 -2.98,0.625 -3.95,0.625 -1.78,-0.195 -3.22,-0.496 -4.43,-0.867 -1.18,-0.422 -2.45,-1.203 -3.8,-2.336 l -3.23,3.203 c 3.33,3.273 6.82,6.348 10.4,9.023 3.63,2.715 7.99,4.094 13.09,4.094 1.57,0 3.04,-0.168 4.4,-0.43 1.39,-0.324 2.28,-0.547 2.65,-0.734 4.49,-1.563 7.89,-4.102 10.12,-7.598 2.24,-3.515 3.4,-7.625 3.4,-12.304 0,-3.672 -0.91,-7.684 -2.66,-11.993 -1.76,-4.296 -4,-8.425 -6.75,-12.4214 -2.75,-4.0118 -5.83,-7.5547 -9.24,-10.6524 -3.43,-3.1523 -6.71,-5.4609 -9.85,-7.0429 -2.34,-1.1719 -4.69,-1.9532 -7.05,-2.3204 -2.34,-0.4023 -4.81,-0.6093 -7.34,-0.6093 -1.39,-3.8946 -3.31,-8.836 -5.72,-14.8243 -2.47,-5.9453 -6.62,-12.6757 -12.51,-20.125 -7.43,-9.6406 -15.55,-17.082 -24.38,-22.5312 -8.79,-5.3203 -17.31,-9.36329 -25.54,-11.98829 -8.24,-2.64062 -15.9,-4.29687 -22.94,-4.97265 C 1027.92,0.320313 1022.43,0 1018.52,0 c -14.69,0 -27.114,2.01953 -37.329,6.00781 -10.168,4.01169 -18.398,9.08199 -24.675,15.11329 -6.243,6.0859 -10.754,12.7578 -13.489,20.0117 -2.746,7.2266 -4.132,14.1602 -4.132,20.8086 0,5.7149 0.871,11.2109 2.511,16.6328 1.668,5.3516 3.965,10.418 6.907,15.1367 2.949,4.6875 6.406,9.1021 10.417,13.2301 4.024,4.082 8.387,7.629 13.079,10.547 5.476,3.75 11.171,6.719 17.039,8.946 5.91,2.296 11.402,4.043 16.602,5.304 5.19,1.289 9.85,2.188 13.96,2.774 4.13,0.605 7.13,1.082 9.11,1.492 -1,0.605 -2.42,1.562 -4.26,2.93 -1.89,1.386 -3.93,3.078 -6.17,5.136 -2.27,2.051 -4.47,4.493 -6.63,7.219 -2.11,2.703 -4.02,5.867 -5.57,9.383 -0.4,0.937 -1.07,2.805 -1.91,5.441 -0.89,2.625 -1.33,5.625 -1.33,8.953 0,4.739 1.28,9.758 3.81,15.137 2.57,5.402 6.47,10.371 11.76,14.981 5.32,4.57 11.94,8.379 19.97,11.289 8.05,2.941 17.44,4.433 28.19,4.433 7.86,0 15.94,-0.945 24.25,-2.801 8.33,-1.867 15.91,-4.472 22.78,-7.773 1.54,-0.793 3.12,-1.699 4.69,-2.676 1.56,-0.949 3.14,-1.933 4.69,-2.922 -1.37,-4.101 -2.44,-7.636 -3.23,-10.566 -0.75,-2.93 -1.46,-5.73 -2.04,-8.379 -0.58,-2.617 -1.18,-5.449 -1.78,-8.387 -0.57,-2.949 -1.15,-6.554 -1.76,-10.851 l -13.5,0" /><path
         id="path3439"
         style="fill:#ffffff;fill-opacity:1;fill-rule:nonzero;stroke:none"
         d="m 83.7969,141.355 c 0,17.356 -10.0078,25.293 -29.6953,25.293 l -7.6289,0 0,-55.574 c 19.3867,-1.789 37.3242,8.817 37.3242,30.281 z M 0,57.0039 l 16.4453,3.4922 0,105.5589 -15.859362,3.816 0,11.192 61.749962,0 c 37.6446,0 54.9611,-14.122 54.9611,-38.243 0,-35.293 -38.5157,-47.9294 -70.8243,-47.0583 l 0,-35.2656 21.4375,-3.4922 0,-11.1953 -67.9102,0 0,11.1953" /><path
         id="path3441"
         style="fill:#ffffff;fill-opacity:1;fill-rule:nonzero;stroke:none"
         d="m 216.414,121.387 c 1.762,0 4.438,-0.293 6.762,-0.293 17.957,0 31.48,6.445 31.48,24.961 0,15.312 -12.676,20.593 -30.015,20.593 l -8.227,0 0,-45.261 z m 38.82,-62.9417 c -5.871,7.6485 -12.343,20.2735 -22.07,48.8127 l -16.75,0 0,-46.7619 15.59,-3.4922 0,-11.1953 -61.762,0 0,11.1953 16.172,3.4922 0,105.5589 -15.281,3.816 0,11.192 64.109,0 c 31.75,0 51.738,-9.403 51.738,-33.536 0,-16.746 -12.644,-28.543 -28.218,-34.695 18.828,-33.2226 29.976,-53.2422 48.816,-56.7304 l 0,-10 c -25.598,-4.1289 -43.254,-0.293 -52.344,12.3437" /><path
         id="path3443"
         style="fill:#ffffff;fill-opacity:1;fill-rule:nonzero;stroke:none"
         d="m 460.488,114.578 c 0,37.949 -15.859,56.465 -36.765,56.465 -21.465,0 -36.145,-18.516 -36.145,-56.465 0,-37.3319 15.274,-58.1913 37.031,-58.1913 21.465,0 35.879,20.8594 35.879,58.1913 z m -108.508,1.496 c 0,45.848 32.036,69.071 73.813,69.071 42.613,0 69.656,-22.911 69.656,-69.071 0,-46.7498 -30.847,-73.7888 -72.91,-73.7888 -42.629,0 -70.559,27.039 -70.559,73.7888" /><path
         id="path3445"
         style="fill:#ffffff;fill-opacity:1;fill-rule:nonzero;stroke:none"
         d="m 658.066,114.578 c 0,37.949 -15.871,56.465 -36.75,56.465 -21.445,0 -36.16,-18.516 -36.16,-56.465 0,-37.3319 15.305,-58.1913 37.051,-58.1913 21.465,0 35.859,20.8594 35.859,58.1913 z m -108.488,1.496 c 0,45.848 32.07,69.071 73.789,69.071 42.641,0 69.692,-22.911 69.692,-69.071 0,-46.7498 -30.871,-73.7888 -72.903,-73.7888 -42.636,0 -70.578,27.039 -70.578,73.7888" /><path
         id="path3447"
         style="fill:#ffffff;fill-opacity:1;fill-rule:nonzero;stroke:none"
         d="m 749.043,57.0039 16.191,3.1914 0,105.8597 -15.285,3.816 0,11.192 106.43,0 0,-35.606 -15.324,0 -5.852,20.898 -39.668,0 0,-46.152 29.074,0 4.102,14.063 12.656,0 0,-46.4613 -12.656,0 -4.102,16.7933 -29.074,0 0,-44.4027 22.895,-3.1914 0,-11.1953 -69.387,0 0,11.1953" /><path
         id="path3449"
         style="fill:#ffffff;fill-opacity:1;fill-rule:nonzero;stroke:none"
         d="m 1298.93,121.387 c 1.77,0 4.45,-0.293 6.75,-0.293 17.97,0 31.49,6.445 31.49,24.961 0,15.312 -12.64,20.593 -30,20.593 l -8.24,0 0,-45.261 z m 38.82,-62.9417 c -5.89,7.6485 -12.36,20.2735 -22.07,48.8127 l -16.75,0 0,-46.7619 15.62,-3.4922 0,-11.1953 -61.76,0 0,11.1953 16.17,3.4922 0,105.5589 -15.31,3.816 0,11.192 64.12,0 c 31.74,0 51.72,-9.403 51.72,-33.536 0,-16.746 -12.61,-28.543 -28.22,-34.695 18.83,-33.2226 30,-53.2422 48.83,-56.7304 l 0,-10 c -25.61,-4.1289 -43.24,-0.293 -52.35,12.3437" /><path
         id="path3451"
         style="fill:#ffffff;fill-opacity:1;fill-rule:nonzero;stroke:none"
         d="m 1439.22,57.0039 16.17,3.7774 0,105.2737 -15.6,3.816 0,11.192 106.46,0 0,-34.129 -15.02,0 -6.17,19.421 -39.38,0 0,-42.949 29.09,0 4.41,13.547 12.36,0 0,-42.3436 -12.36,0 -4.41,13.2106 -29.09,0 0,-46.7184 44.09,0 5.58,21.1953 15.28,0 0,-36.4883 -111.41,0 0,11.1953" /><path
         id="path3453"
         style="fill:#ffffff;fill-opacity:1;fill-rule:nonzero;stroke:none"
         d="m 1648.77,100.496 39.39,0 -20.29,51.75 -19.1,-51.75 z m -49.39,-43.4921 12.92,2.8867 49.4,122.6294 24.98,0 52.34,-123.1841 13.21,-2.332 0,-11.1953 -64.07,0 0,11.1953 16.2,2.332 -10.92,27.6758 -49.69,0 -9.71,-27.1211 16.51,-2.8867 0,-11.1953 -51.17,0 0,11.1953" /><path
         id="path3455"
         style="fill:#ffffff;fill-opacity:1;fill-rule:nonzero;stroke:none"
         d="m 1798.01,52.8438 3.55,35.8945 16.74,0 4.41,-22.9375 c 5.86,-4.6992 13.81,-7.9414 23.23,-7.9414 12.95,0 25.27,5.5781 25.27,17.082 0,12.8633 -16.17,19.0899 -33.79,27.3166 -19.43,8.816 -37.63,21.472 -37.63,42.027 0,25.313 23.22,39.68 53.49,39.68 15.27,0 31.15,-3.215 44.69,-8.789 l -2.66,-32.93 -17.61,0 -3.85,20.887 c -5.55,3.808 -12.62,6.152 -21.15,6.152 -12.07,0 -22.66,-4.414 -22.66,-14.129 0,-12.91 14.98,-19.98 32.07,-27.922 19.71,-8.789 40.86,-20.855 40.86,-41.1402 0,-26.7579 -25.9,-42.9297 -56.45,-42.9297 -17.05,0 -34.68,2.9375 -48.51,9.6797" /><path
         id="path3457"
         style="fill:#ffffff;fill-opacity:1;fill-rule:nonzero;stroke:none"
         d="m 2062.43,114.578 c 0,37.949 -15.86,56.465 -36.74,56.465 -21.48,0 -36.15,-18.516 -36.15,-56.465 0,-37.3319 15.25,-58.1913 37.03,-58.1913 21.47,0 35.86,20.8594 35.86,58.1913 z m -108.49,1.496 c 0,45.848 32.05,69.071 73.8,69.071 42.66,0 69.67,-22.911 69.67,-69.071 0,-46.7498 -30.86,-73.7888 -72.89,-73.7888 -42.64,0 -70.58,27.039 -70.58,73.7888" /><path
         id="path3459"
         style="fill:#ffffff;fill-opacity:1;fill-rule:nonzero;stroke:none"
         d="m 2143.12,57.5508 15,4.3906 c 0,0 1.73,7.9883 1.73,49.9996 l 0,51.192 -15.84,6.738 0,11.192 31.43,0 c 9.73,0 13.24,-0.313 19.12,-7.657 l 63.79,-77.8982 0,30.8472 c 0,29.727 -1.45,38.516 -1.45,38.516 l -18.82,4.414 0,11.778 54.68,0 0,-11.778 -15.58,-4.414 c 0,0 -1.47,-8.789 -1.47,-38.516 l 0,-81.4331 -17.05,0 -81.17,99.3631 0,-32.344 c 0,-42.0113 1.8,-49.9996 1.8,-49.9996 l 17.61,-4.3906 0,-11.7422 -53.78,0 0,11.7422" /></g></g></svg>